Coordinates
version=1
nRows=8
nColumns=29
inDegrees=yes

Units are S.I. units (second, meters, Newtons, ...)
If the header above contains a line with 'inDegrees', this indicates whether rotational values are in degrees (yes) or radians (no).

endheader
time	bJoint_3	seatpos	slocangle	soarinout	sblpos	plocangle	poarinout	pblpos	hipangle	kneeangle	footangle	lbackangle	uarmleft_up	uarmleft_out	uarmleft_trn	se_inout	se_updown	handleleft_out	handleleft_trn	handleleft_up	uarmright_up	uarmright_out	uarmright_trn	pe_inout	pe_updown	handleright_out	handleright_trn	handleright_up
      0.00000000	     -0.00769807	     -0.64862881	     78.83008316	     22.63395543	    -22.63395543	     78.28668342	     21.74108200	    -21.74108200	     23.91050378	    144.01308787	     77.92359164	     11.35984921	    -21.86214129	    -47.82159803	     11.80863800	      4.48351567	      4.32317340	     26.22751022	      2.97183861	     -2.48220227	    -16.85498511	    -46.69889233	     10.33912446	      4.02880445	      4.31392406	    -27.70136639	     -1.22974861	      0.16662052
      0.00500000	     -0.00771797	     -0.64831152	     78.79178676	     22.62293779	    -22.62293779	     78.25406181	     21.74740245	    -21.74740245	     23.92564606	    143.97298301	     77.89862906	     11.33122610	    -21.84517726	    -47.72170466	     11.80788096	      4.50052164	      4.39062431	     26.27176048	      2.99025162	     -2.43799502	    -16.85361179	    -46.61658053	     10.33373567	      4.05185323	      4.34271236	    -27.72751751	     -1.25359787	      0.17722222
      0.01000000	     -0.00756309	     -0.64799838	     78.78518692	     22.61862246	    -22.61862246	     78.25126930	     21.75560895	    -21.75560895	     23.94060253	    143.93339758	     77.87400011	     11.34944340	    -21.87852331	    -47.72417571	     11.80515710	      4.46019375	      4.39364244	     26.30300163	      3.00547972	     -2.44492985	    -16.89902727	    -46.58829716	     10.33070809	      4.10378671	      4.34302850	    -27.69922800	     -1.27317869	      0.16111952
      0.01500000	     -0.00756869	     -0.64748167	     78.74691611	     22.63886874	    -22.63886874	     78.19839622	     21.74186647	    -21.74186647	     23.96531614	    143.86806293	     77.83337907	     11.32043800	    -21.90033622	    -47.62027304	     11.80843943	      4.50409127	      4.42359356	     26.32155991	      3.02591236	     -2.44772305	    -16.86954955	    -46.42811819	     10.32783685	      4.18982758	      4.39510675	    -27.72213980	     -1.29438199	      0.19553797
      0.02000000	     -0.00752366	     -0.64672049	     78.69819598	     22.62352041	    -22.62352041	     78.16092464	     21.75591984	    -21.75591984	     24.00180103	    143.77178114	     77.77358217	     11.31664468	    -21.89137858	    -47.48298499	     11.80639171	      4.55547762	      4.45866977	     26.35923268	      3.03805410	     -2.43197378	    -16.90305469	    -46.33531406	     10.32512253	      4.22020556	      4.38531807	    -27.74583926	     -1.31731711	      0.16439459
      0.02500000	     -0.00757932	     -0.64588810	     78.66751400	     22.62103889	    -22.62103889	     78.12630809	     21.74542772	    -21.74542772	     24.04180357	    143.66644747	     77.70825105	     11.34013394	    -21.94310032	    -47.41928307	     11.80756620	      4.54261300	      4.46459742	     26.40391595	      3.05881544	     -2.45064777	    -16.94101185	    -46.24492107	     10.32344771	      4.24747677	      4.39394757	    -27.77462061	     -1.34253328	      0.15375114
      0.03000000	     -0.00760466	     -0.64535553	     78.62226097	     22.62494999	    -22.62494999	     78.08037401	     21.74642903	    -21.74642903	     24.06745530	    143.59902768	     77.66648298	     11.31081270	    -21.93307357	    -47.29726164	     11.80625304	      4.58615237	      4.49993592	     26.43617667	      3.07247541	     -2.43853493	    -16.92569093	    -46.15948213	     10.31339414	      4.21535363	      4.40162408	    -27.84781527	     -1.36351439	      0.15192520
      0.03500000	     -0.00759529	     -0.64452825	     78.57268176	     22.61941464	    -22.61941464	     78.03037853	     21.74465178	    -21.74465178	     24.10739047	    143.49426061	     77.60165108	     11.30400044	    -21.92986298	    -47.19031709	     11.80063058	      4.57561929	      4.50570628	     26.50482669	      3.08207420	     -2.44803443	    -16.93452966	    -46.03182479	     10.31038627	      4.25535555	      4.40836640	    -27.88616822	     -1.38477526	      0.14087711
